<?xml version="1.0" encoding="utf-8"?>
<!-- Generator: Adobe Illustrator 24.2.3, SVG Export Plug-In . SVG Version: 6.00 Build 0)  -->
<svg version="1.1" xmlns="http://www.w3.org/2000/svg" xmlns:xlink="http://www.w3.org/1999/xlink" x="0px" y="0px"
	 viewBox="0 0 2267.7 1700.8" style="enable-background:new 0 0 2267.7 1700.8;" xml:space="preserve">
<style type="text/css">
	.st0{opacity:0.25;fill:url(#SVGID_1_);}
	.st1{opacity:0.25;fill:url(#SVGID_2_);}
	.st2{fill:#FFFFFF;stroke:#FFFFFF;stroke-width:1.4138;stroke-miterlimit:10;}
	.st3{font-family:'Soleto-Medium';}
	.st4{font-size:84.3552px;}
	.st5{fill:#FFFFFF;stroke:#FFFFFF;stroke-width:3.2368;stroke-miterlimit:10;}
	.st6{font-size:193.1311px;}
	.st7{fill:#FF0099;}
	.st8{font-size:24px;}
	.st9{letter-spacing:1;}
	.st10{fill:#FFFFFF;}
	.st11{font-size:32px;}
	.st12{fill:#00CCCC;}
	.st13{font-family:'Soleto-XBold';}
	.st14{font-size:28.4319px;}
	.st15{letter-spacing:2;}
	.st16{font-size:77px;}
	.st17{letter-spacing:3;}
	.st18{fill:#17ECFF;}
	.st19{font-size:50px;}
	.st20{fill:none;stroke:#FFFFFF;stroke-width:2.3557;stroke-miterlimit:10;}
	.st21{fill:none;stroke:#FFFFFF;stroke-width:2.8557;stroke-miterlimit:10;}
	.st22{fill:none;stroke:#FFFFFF;stroke-width:2.8557;stroke-miterlimit:10;stroke-dasharray:7.1679,7.1679;}
	.st23{fill:none;stroke:#FFFFFF;stroke-width:2.8872;stroke-miterlimit:10;}
	.st24{fill:none;stroke:#FFFFFF;stroke-width:2.8872;stroke-miterlimit:10;stroke-dasharray:7.1594,7.1594;}
	.st25{fill:#FFFFFF;stroke:#FFFFFF;stroke-width:2.0319;stroke-miterlimit:10;}
	.st26{font-size:121.2381px;}
	.st27{fill:#0DE1EC;}
	.st28{font-size:34px;}
	.st29{fill:none;stroke:#FFFFFF;stroke-width:2.6099;stroke-miterlimit:10;}
</style>
<g id="Lager_2">
	<rect x="-3.5" y="1.2" width="2270.3" height="1702.4"/>
	<linearGradient id="SVGID_1_" gradientUnits="userSpaceOnUse" x1="-95.4008" y1="1539.488" x2="2358.7432" y2="165.3703">
		<stop  offset="0" style="stop-color:#452778;stop-opacity:0.5"/>
		<stop  offset="0.5" style="stop-color:#452778"/>
		<stop  offset="1" style="stop-color:#452778;stop-opacity:0.5"/>
	</linearGradient>
	<rect x="-3.5" y="1.2" class="st0" width="2270.3" height="1702.4"/>
	
		<radialGradient id="SVGID_2_" cx="1131.6711" cy="819.6129" r="1218.6156" gradientTransform="matrix(1 0 0 0.587 0 371.3402)" gradientUnits="userSpaceOnUse">
		<stop  offset="0" style="stop-color:#452778"/>
		<stop  offset="1" style="stop-color:#452778;stop-opacity:0.5"/>
	</radialGradient>
	<rect x="-3.5" y="1.2" class="st1" width="2270.3" height="1702.4"/>
	<g>
		
			<image style="overflow:visible;" width="104" height="104" xlink:href="50979E875D6D66E9.png"  transform="matrix(1 0 0 1 386.091 777.0615)">
		</image>
	</g>
	<g>
		
			<image style="overflow:visible;" width="114" height="114" xlink:href="50979E875D6D66EB.png"  transform="matrix(1 0 0 1 369.091 826.0615)">
		</image>
	</g>
	<g>
		
			<image style="overflow:visible;" width="391" height="391" xlink:href="50979E875D6D66EE.png"  transform="matrix(1 0 0 1 1747.0909 445.0615)">
		</image>
	</g>
	<g>
		
			<image style="overflow:visible;" width="316" height="316" xlink:href="50979E875D6D66EF.png"  transform="matrix(1 0 0 1 1711.0909 774.0615)">
		</image>
	</g>
	<g>
		
			<image style="overflow:visible;" width="215" height="215" xlink:href="50979E875D6D66EA.png"  transform="matrix(1 0 0 1 1482.0909 1040.0614)">
		</image>
	</g>
	<g>
		
			<image style="overflow:visible;" width="167" height="166" xlink:href="50979E875D6D66E5.png"  transform="matrix(1 0 0 1 524.091 729.0615)">
		</image>
	</g>
	<g>
		
			<image style="overflow:visible;" width="116" height="116" xlink:href="50979E875D6D66E6.png"  transform="matrix(1 0 0 1 1417.0909 961.0615)">
		</image>
	</g>
	<g>
		
			<image style="overflow:visible;" width="142" height="141" xlink:href="50979E875D6D66E7.png"  transform="matrix(1 0 0 1 1386.0909 1006.0615)">
		</image>
	</g>
	<g>
		
			<image style="overflow:visible;" width="274" height="274" xlink:href="50979E875D6D66F9.png"  transform="matrix(1 0 0 1 204.091 915.0615)">
		</image>
	</g>
	<g>
		
			<image style="overflow:visible;" width="212" height="206" xlink:href="A5E9E99080CFDFB2.png"  transform="matrix(1 0 0 1 977.091 1019.0615)">
		</image>
	</g>
	<g>
		
			<image style="overflow:visible;" width="275" height="194" xlink:href="A5E9E99080CFDFB5.png"  transform="matrix(1 0 0 1 408.091 841.0615)">
		</image>
	</g>
	<g>
		
			<image style="overflow:visible;" width="273" height="274" xlink:href="A5E9E99080CFDFB6.png"  transform="matrix(1 0 0 1 533.8591 255.8)">
		</image>
	</g>
	<g>
		
			<image style="overflow:visible;" width="142" height="142" xlink:href="A5E9E99080CFDFB4.png"  transform="matrix(1 0 0 1 1410.0909 663.0615)">
		</image>
	</g>
	<g>
		
			<image style="overflow:visible;" width="391" height="391" xlink:href="A5E9E99080CFDFB3.png"  transform="matrix(1 0 0 1 296.4243 1119.1975)">
		</image>
	</g>
</g>
<g id="Lager_3">
	<g>
		<circle class="st2" cx="233.4" cy="577.3" r="46.2"/>
		<text transform="matrix(1 0 0 1 207.8189 603.9705)" class="st3 st4">1</text>
	</g>
	<g>
		<circle class="st5" cx="1233.3" cy="851.5" r="105.7"/>
		<text transform="matrix(1 0 0 1 1181.6965 917.3662)" class="st3 st6">3</text>
	</g>
	<text transform="matrix(1 0 0 1 1458.1592 428.6146)" class="st7 st3 st8 st9">BIOTECH</text>
	<text transform="matrix(1 0 0 1 106.8985 690.2349)"><tspan x="0" y="0" class="st10 st3 st11">Naturvetenskapligt </tspan><tspan x="0" y="48" class="st10 st3 st11">      arbetssätt</tspan></text>
	<text transform="matrix(1 0 0 1 53.4698 855.2435)"><tspan x="0" y="0" class="st10 st3 st11">          Utveckling av</tspan><tspan x="0" y="48" class="st10 st3 st11">kommunikationsförmågor</tspan></text>
	<text transform="matrix(1 0 0 1 1346.1108 1257.6876)" class="st10 st3 st11">Maximal meritpoäng</text>
	<text transform="matrix(1 0 0 1 1412.2917 479.5629)"><tspan x="0" y="0" class="st10 st3 st11">Fördjupande</tspan><tspan x="0" y="44" class="st10 st3 st11">    laborationsarbete</tspan></text>
	<text transform="matrix(1 0 0 1 1363.9648 835.3845)"><tspan x="0" y="0" class="st10 st3 st11">Tillämpningar</tspan><tspan x="0" y="48" class="st10 st3 st11">    och problemlösning </tspan></text>
	<text transform="matrix(1 -6.290000e-03 6.290000e-03 1 1923.8156 682.3405)" class="st12 st13 st14 st15">ARBETE</text>
	<text transform="matrix(1 3.600000e-04 -3.600000e-04 1 1869.9961 887.79)"><tspan x="0" y="0" class="st12 st13 st14 st15">CIVILINGENJÖR</tspan><tspan x="57.5" y="42" class="st12 st13 st14 st15">LÄKARE</tspan><tspan x="20.5" y="84" class="st12 st13 st14 st15">ANALYTIKER</tspan><tspan x="63.6" y="126" class="st12 st13 st14 st15">JURIST</tspan><tspan x="57.7" y="168" class="st12 st13 st14 st15">LÄRARE</tspan><tspan x="36.9" y="210" class="st12 st13 st14 st15">FORSKARE</tspan></text>
	<text transform="matrix(1 -5.000000e-04 5.000000e-04 1 1804.2783 840.6555)" class="st12 st13 st14 st15">HÖGSKOLA/UNIVERSITET</text>
	<text transform="matrix(1 0 0 1 1803.7021 778.9111)" class="st10 st13 st16 st17">STUDENT</text>
	<text transform="matrix(1 0 0 1 172.6489 172.9286)" class="st18 st13 st19 st9">NATURVETENSKAPSPROGRAMMET ÖVER TRE ÅR</text>
	<polyline class="st20" points="251,241.3 1465.3,241.3 1465.3,72.3 90.8,72.3 90.8,244.6 	"/>
	<text transform="matrix(1 0 0 1 1378.4271 1210.6002)" class="st7 st3 st8 st9">MASTER</text>
	<g>
		<line class="st10" x1="1421.9" y1="532.2" x2="1262.3" y2="752.7"/>
		<g>
			<line class="st21" x1="1421.9" y1="532.2" x2="1419.9" y2="535.1"/>
			<line class="st22" x1="1415.7" y1="540.9" x2="1266.4" y2="747"/>
			<line class="st21" x1="1264.3" y1="749.9" x2="1262.3" y2="752.7"/>
		</g>
	</g>
	<g>
		<line class="st10" x1="1412.9" y1="1166.6" x2="1275" y2="948.6"/>
		<g>
			<line class="st23" x1="1412.9" y1="1166.6" x2="1411" y2="1163.5"/>
			<line class="st24" x1="1407.1" y1="1157.4" x2="1278.9" y2="954.8"/>
			<line class="st23" x1="1277" y1="951.7" x2="1275" y2="948.6"/>
		</g>
	</g>
	
		<image style="overflow:visible;" width="784" height="200" xlink:href="../Downloads/NTI Gymnasiet_Kronhus_Digital_vit.png"  transform="matrix(0.7743 0 0 0.7743 1568.6234 1449.8677)">
	</image>
	<g>
		<path class="st25" d="M628.1,701.1c0,36.7-29.7,66.4-66.4,66.4s-69.6-29.7-69.6-66.4s32.9-66.4,69.6-66.4S628.1,664.5,628.1,701.1
			z"/>
		<text transform="matrix(1 0 0 1 524.967 739.5525)" class="st3 st26">2</text>
	</g>
	<text transform="matrix(1 0 0 1 567.8164 950.9541)" class="st10 st3 st11">Matematiken som verktyg</text>
	<text transform="matrix(1 0 0 1 648.0398 1067.8068)" class="st10 st3 st11">Avancerad kemi och biologi</text>
	<text transform="matrix(1 0 0 1 667.3496 891.0323)" class="st10 st3 st11">Naturvetenskaplig analys</text>
	<text transform="matrix(1 0 0 1 718.5787 1126.0243)" class="st27 st3 st11">Utlandsstudier 1 år</text>
	<text transform="matrix(1 0 0 1 627.9761 1008.6932)" class="st10 st3 st11">Fysikens grunder</text>
	<g>
		<text transform="matrix(1 0 0 1 669.8516 777.558)" class="st7 st3 st28 st9">NATURVETENSKAP</text>
		<g>
			<rect x="586.4" y="710.6" class="st29" width="490.2" height="105"/>
		</g>
	</g>
	<text transform="matrix(1 0 0 1 65.6373 797.5054)" class="st10 st3 st11">Matematikens grunder</text>
	<text transform="matrix(1 0 0 1 1344.4441 939.7756)" class="st10 st3 st11">Högskoleförberedande kurser</text>
</g>
</svg>
