<?xml version="1.0" encoding="utf-8"?>
<!-- Generator: Adobe Illustrator 24.2.3, SVG Export Plug-In . SVG Version: 6.00 Build 0)  -->
<svg version="1.1" id="Lager_3" xmlns="http://www.w3.org/2000/svg" xmlns:xlink="http://www.w3.org/1999/xlink" x="0px" y="0px"
	 viewBox="0 0 2267.7 1700.8" style="enable-background:new 0 0 2267.7 1700.8;" xml:space="preserve">
<style type="text/css">
	.st0{fill:#FFFFFF;stroke:#FFFFFF;stroke-width:1.4138;stroke-miterlimit:10;}
	.st1{font-family:'Soleto-Medium';}
	.st2{font-size:84.3552px;}
	.st3{fill:#FFFFFF;stroke:#FFFFFF;stroke-width:3.2368;stroke-miterlimit:10;}
	.st4{font-size:193.1311px;}
	.st5{fill:#FF0099;}
	.st6{font-size:24px;}
	.st7{letter-spacing:1;}
	.st8{fill:#FFFFFF;}
	.st9{font-size:32px;}
	.st10{fill:#00CCCC;}
	.st11{font-family:'Soleto-XBold';}
	.st12{font-size:28.4319px;}
	.st13{letter-spacing:2;}
	.st14{font-size:77px;}
	.st15{letter-spacing:3;}
	.st16{fill:#17ECFF;}
	.st17{font-size:50px;}
	.st18{fill:none;stroke:#FFFFFF;stroke-width:2.3557;stroke-miterlimit:10;}
	.st19{fill:none;stroke:#FFFFFF;stroke-width:2.8557;stroke-miterlimit:10;}
	.st20{fill:none;stroke:#FFFFFF;stroke-width:2.8557;stroke-miterlimit:10;stroke-dasharray:7.1679,7.1679;}
	.st21{fill:none;stroke:#FFFFFF;stroke-width:2.8872;stroke-miterlimit:10;}
	.st22{fill:none;stroke:#FFFFFF;stroke-width:2.8872;stroke-miterlimit:10;stroke-dasharray:7.1594,7.1594;}
	.st23{fill:#FFFFFF;stroke:#FFFFFF;stroke-width:2.0319;stroke-miterlimit:10;}
	.st24{font-size:121.2381px;}
	.st25{fill:#0DE1EC;}
	.st26{font-size:34px;}
	.st27{fill:none;stroke:#FFFFFF;stroke-width:2.6099;stroke-miterlimit:10;}
</style>
<g>
	<circle class="st0" cx="233.4" cy="577.3" r="46.2"/>
	<text transform="matrix(1 0 0 1 207.8189 603.9705)" class="st1 st2">1</text>
</g>
<g>
	<circle class="st3" cx="1233.3" cy="851.5" r="105.7"/>
	<text transform="matrix(1 0 0 1 1181.6965 917.3662)" class="st1 st4">3</text>
</g>
<text transform="matrix(1 0 0 1 1458.1592 428.6146)" class="st5 st1 st6 st7">BIOTECH</text>
<text transform="matrix(1 0 0 1 106.8985 690.2349)"><tspan x="0" y="0" class="st8 st1 st9">Naturvetenskapligt </tspan><tspan x="0" y="48" class="st8 st1 st9">      arbetssätt</tspan></text>
<text transform="matrix(1 0 0 1 53.4698 855.2435)"><tspan x="0" y="0" class="st8 st1 st9">          Utveckling av</tspan><tspan x="0" y="48" class="st8 st1 st9">kommunikationsförmågor</tspan></text>
<text transform="matrix(1 0 0 1 1346.1108 1257.6876)" class="st8 st1 st9">Maximal meritpoäng</text>
<text transform="matrix(1 0 0 1 1412.2917 479.5629)"><tspan x="0" y="0" class="st8 st1 st9">Fördjupande</tspan><tspan x="0" y="44" class="st8 st1 st9">    laborationsarbete</tspan></text>
<text transform="matrix(1 0 0 1 1363.9648 835.3845)"><tspan x="0" y="0" class="st8 st1 st9">Tillämpningar</tspan><tspan x="0" y="48" class="st8 st1 st9">    och problemlösning </tspan></text>
<text transform="matrix(1 -6.290000e-03 6.290000e-03 1 1923.8156 682.3405)" class="st10 st11 st12 st13">ARBETE</text>
<text transform="matrix(1 3.600000e-04 -3.600000e-04 1 1869.9961 887.79)"><tspan x="0" y="0" class="st10 st11 st12 st13">CIVILINGENJÖR</tspan><tspan x="57.5" y="42" class="st10 st11 st12 st13">LÄKARE</tspan><tspan x="20.5" y="84" class="st10 st11 st12 st13">ANALYTIKER</tspan><tspan x="63.6" y="126" class="st10 st11 st12 st13">JURIST</tspan><tspan x="57.7" y="168" class="st10 st11 st12 st13">LÄRARE</tspan><tspan x="36.9" y="210" class="st10 st11 st12 st13">FORSKARE</tspan></text>
<text transform="matrix(1 -5.000000e-04 5.000000e-04 1 1804.2783 840.6555)" class="st10 st11 st12 st13">HÖGSKOLA/UNIVERSITET</text>
<text transform="matrix(1 0 0 1 1803.7021 778.9111)" class="st8 st11 st14 st15">STUDENT</text>
<text transform="matrix(1 0 0 1 172.6489 172.9286)" class="st16 st11 st17 st7">NATURVETENSKAPSPROGRAMMET ÖVER TRE ÅR</text>
<polyline class="st18" points="251,241.3 1465.3,241.3 1465.3,72.3 90.8,72.3 90.8,244.6 "/>
<text transform="matrix(1 0 0 1 1378.4271 1210.6002)" class="st5 st1 st6 st7">MASTER</text>
<g>
	<line class="st8" x1="1421.9" y1="532.2" x2="1262.3" y2="752.7"/>
	<g>
		<line class="st19" x1="1421.9" y1="532.2" x2="1419.9" y2="535.1"/>
		<line class="st20" x1="1415.7" y1="540.9" x2="1266.4" y2="747"/>
		<line class="st19" x1="1264.3" y1="749.9" x2="1262.3" y2="752.7"/>
	</g>
</g>
<g>
	<line class="st8" x1="1412.9" y1="1166.6" x2="1275" y2="948.6"/>
	<g>
		<line class="st21" x1="1412.9" y1="1166.6" x2="1411" y2="1163.5"/>
		<line class="st22" x1="1407.1" y1="1157.4" x2="1278.9" y2="954.8"/>
		<line class="st21" x1="1277" y1="951.7" x2="1275" y2="948.6"/>
	</g>
</g>
<image style="overflow:visible;" width="784" height="200" xlink:href="../Downloads/NTI Gymnasiet_Kronhus_Digital_vit.png"  transform="matrix(0.7743 0 0 0.7743 1568.6234 1449.8677)">
</image>
<g>
	<path class="st23" d="M628.1,701.1c0,36.7-29.7,66.4-66.4,66.4s-69.6-29.7-69.6-66.4s32.9-66.4,69.6-66.4S628.1,664.5,628.1,701.1z
		"/>
	<text transform="matrix(1 0 0 1 524.967 739.5525)" class="st1 st24">2</text>
</g>
<text transform="matrix(1 0 0 1 567.8164 950.9541)" class="st8 st1 st9">Matematiken som verktyg</text>
<text transform="matrix(1 0 0 1 648.0398 1067.8068)" class="st8 st1 st9">Avancerad kemi och biologi</text>
<text transform="matrix(1 0 0 1 667.3496 891.0323)" class="st8 st1 st9">Naturvetenskaplig analys</text>
<text transform="matrix(1 0 0 1 718.5787 1126.0243)" class="st25 st1 st9">Utlandsstudier 1 år</text>
<text transform="matrix(1 0 0 1 627.9761 1008.6932)" class="st8 st1 st9">Fysikens grunder</text>
<g>
	<text transform="matrix(1 0 0 1 669.8516 777.558)" class="st5 st1 st26 st7">NATURVETENSKAP</text>
	<g>
		<rect x="586.4" y="710.6" class="st27" width="490.2" height="105"/>
	</g>
</g>
<text transform="matrix(1 0 0 1 65.6373 797.5054)" class="st8 st1 st9">Matematikens grunder</text>
<text transform="matrix(1 0 0 1 1344.4441 939.7756)" class="st8 st1 st9">Högskoleförberedande kurser</text>
</svg>
